<svg width="27" height="33" viewBox="0 0 27 33" fill="none" xmlns="http://www.w3.org/2000/svg">
<path fill-rule="evenodd" clip-rule="evenodd" d="M7.975 0.975C8.57505 0.362653 9.39275 0.0122104 10.25 0H16.75C17.612 0 18.4386 0.34241 19.0481 0.951903C19.6576 1.5614 20 2.38805 20 3.25V6.5H24.875C25.306 6.5 25.7193 6.67121 26.024 6.97595C26.3288 7.2807 26.5 7.69402 26.5 8.125C26.5 8.55598 26.3288 8.9693 26.024 9.27405C25.7193 9.57879 25.306 9.75 24.875 9.75V29.25C24.875 30.112 24.5326 30.9386 23.9231 31.5481C23.3136 32.1576 22.487 32.5 21.625 32.5H5.375C4.51305 32.5 3.6864 32.1576 3.0769 31.5481C2.46741 30.9386 2.125 30.112 2.125 29.25V9.75C1.69402 9.75 1.2807 9.57879 0.975952 9.27405C0.671205 8.9693 0.5 8.55598 0.5 8.125C0.5 7.69402 0.671205 7.2807 0.975952 6.97595C1.2807 6.67121 1.69402 6.5 2.125 6.5H7V3.25C7 2.4375 7.325 1.625 7.975 0.975ZM10.25 6.5H16.75V3.25H10.25V6.5ZM11.875 13C11.875 12.569 11.7038 12.1557 11.399 11.851C11.0943 11.5462 10.681 11.375 10.25 11.375C9.81902 11.375 9.4057 11.5462 9.10095 11.851C8.79621 12.1557 8.625 12.569 8.625 13V26C8.625 26.431 8.79621 26.8443 9.10095 27.149C9.4057 27.4538 9.81902 27.625 10.25 27.625C10.681 27.625 11.0943 27.4538 11.399 27.149C11.7038 26.8443 11.875 26.431 11.875 26V13ZM18.375 13C18.375 12.569 18.2038 12.1557 17.899 11.851C17.5943 11.5462 17.181 11.375 16.75 11.375C16.319 11.375 15.9057 11.5462 15.601 11.851C15.2962 12.1557 15.125 12.569 15.125 13V26C15.125 26.431 15.2962 26.8443 15.601 27.149C15.9057 27.4538 16.319 27.625 16.75 27.625C17.181 27.625 17.5943 27.4538 17.899 27.149C18.2038 26.8443 18.375 26.431 18.375 26V13Z" fill="#FFBD8D" fill-opacity="0.5"/>
</svg>
