<svg width="352" height="109" viewBox="0 0 352 109" fill="none" xmlns="http://www.w3.org/2000/svg">
<g clip-path="url(#clip0_26_195)">
<mask id="mask0_26_195" style="mask-type:luminance" maskUnits="userSpaceOnUse" x="0" y="0" width="352" height="109">
<path d="M352 0H0V109H352V0Z" fill="white"/>
</mask>
<g mask="url(#mask0_26_195)">
<path d="M20.6136 46.6836C21.9971 46.6836 23.2915 47.0269 24.4973 47.7134C25.2068 48.1254 25.5614 48.6575 25.5614 49.31C25.5614 49.6187 25.4813 49.979 25.3219 50.3909C24.9497 51.3697 24.4355 51.8585 23.7789 51.8585C23.5135 51.8585 23.2649 51.7898 23.0345 51.6526C22.1656 51.189 21.2345 50.9577 20.2414 50.9577C18.6451 50.9577 17.0402 51.4982 15.4269 52.5796C13.813 53.6435 12.4828 55.0681 11.4364 56.8532C10.4082 58.6382 9.89403 60.5348 9.89403 62.5427V67.5374H18.8585C19.4611 67.5374 19.8866 67.6748 20.1352 67.9494C20.4008 68.207 20.5341 68.653 20.5341 69.2879C20.5341 69.9233 20.4008 70.3781 20.1352 70.6526C19.8866 70.9102 19.4611 71.0389 18.8585 71.0389H1.72751C1.12485 71.0389 0.690169 70.9102 0.424024 70.6526C0.176038 70.3781 0.0517578 69.9233 0.0517578 69.2879C0.0517578 68.653 0.176038 68.207 0.424024 67.9494C0.690169 67.6748 1.12485 67.5374 1.72751 67.5374H5.90355V50.7513H2.52538C1.92272 50.7513 1.48803 50.6228 1.22189 50.3652C0.973901 50.0904 0.849629 49.6357 0.849629 49.0008C0.849629 48.3659 0.973901 47.9193 1.22189 47.6624C1.48803 47.3878 1.92272 47.2504 2.52538 47.2504H7.95213C8.55479 47.2504 8.9804 47.3878 9.22894 47.6624C9.49508 47.9193 9.62788 48.3659 9.62788 49.0008V54.2016C10.4791 52.6911 11.5074 51.3697 12.7132 50.2365C13.9191 49.1036 15.205 48.2285 16.5704 47.6107C17.9358 46.9928 19.284 46.6836 20.6136 46.6836ZM45.3787 46.6836C47.9499 46.6836 50.1399 47.19 51.949 48.2028C53.7757 49.198 55.1768 50.5887 56.1517 52.3736C57.1272 54.141 57.6855 56.1837 57.8274 58.5008C57.8274 59.0843 57.6946 59.496 57.4285 59.7368C57.1806 59.9767 56.7549 60.0971 56.1517 60.0971H36.8933C37.0176 62.6542 37.7972 64.5941 39.2341 65.9155C40.688 67.2199 42.7366 67.872 45.3787 67.872C47.0102 67.872 48.6242 67.6748 50.2198 67.2799C51.8162 66.8679 53.2167 66.3275 54.4227 65.658C54.7245 65.5037 54.9992 65.4261 55.2471 65.4261C55.8679 65.4261 56.3735 65.8809 56.7635 66.7911C56.9234 67.1514 57.003 67.4776 57.003 67.7693C57.003 68.4558 56.613 68.9879 55.8327 69.3653C54.4673 70.0348 52.8535 70.5752 50.9911 70.9872C49.1293 71.3992 47.2583 71.6051 45.3787 71.6051C42.7008 71.6051 40.4134 71.1074 38.5157 70.1116C36.618 69.1164 35.1733 67.6835 34.1802 65.8124C33.1872 63.9416 32.69 61.7188 32.69 59.1446C32.69 56.6901 33.2314 54.5189 34.313 52.6307C35.3946 50.7429 36.8933 49.2843 38.8086 48.2545C40.7237 47.207 42.9137 46.6836 45.3787 46.6836ZM45.3787 50.4167C43.1973 50.4167 41.3889 50.9577 39.952 52.0386C38.5333 53.1031 37.6026 54.5876 37.1595 56.4929H53.4118C53.0396 54.5189 52.1794 53.0174 50.8315 51.987C49.502 50.9401 47.6838 50.4167 45.3787 50.4167ZM77.911 46.6836C81.2447 46.6836 83.7452 47.4048 85.4124 48.8464C87.0789 50.2882 87.9126 52.4247 87.9126 55.2572V65.5037C87.9126 66.8596 88.4978 67.5374 89.6683 67.5374H90.5991C91.2023 67.5374 91.6278 67.6748 91.8759 67.9494C92.142 68.207 92.2748 68.653 92.2748 69.2879C92.2748 69.9233 92.142 70.3781 91.8759 70.6526C91.6278 70.9102 91.2023 71.0389 90.5991 71.0389H88.8967C87.7441 71.0389 86.751 70.7641 85.9175 70.2149C85.102 69.6488 84.5696 68.8248 84.3217 67.7433C82.8671 68.9792 81.2891 69.9315 79.5866 70.601C77.9019 71.2705 76.1109 71.6051 74.2132 71.6051C72.4222 71.6051 70.8351 71.3135 69.4521 70.73C68.0867 70.1292 67.0137 69.2625 66.2335 68.1296C65.4532 66.997 65.0627 65.6498 65.0627 64.0877C65.0627 61.3755 66.0649 59.3764 68.0687 58.0891C70.073 56.7845 72.6617 56.132 75.8362 56.132C78.6553 56.132 81.3509 56.5699 83.9226 57.4453V55.2572C83.9226 53.5919 83.4347 52.3736 82.4598 51.6009C81.5019 50.8116 79.9505 50.4167 77.8043 50.4167C76.4746 50.4167 75.0912 50.5968 73.6548 50.9577C72.2185 51.318 70.8526 51.8157 69.5583 52.4506C69.257 52.6054 68.9823 52.6824 68.7337 52.6824C68.1486 52.6824 67.6612 52.2704 67.2707 51.4465C67.0756 51.0347 66.978 50.6915 66.978 50.4167C66.978 49.8159 67.306 49.3528 67.9625 49.0266C69.4521 48.2715 71.0479 47.6964 72.7504 47.3015C74.4708 46.8895 76.1908 46.6836 77.911 46.6836ZM75.8629 59.7625C73.8234 59.7625 72.2096 60.1058 71.0211 60.7923C69.851 61.4613 69.2659 62.5344 69.2659 64.0103C69.2659 65.263 69.7091 66.2417 70.5956 66.9453C71.5001 67.6319 72.7593 67.9751 74.3733 67.9751C77.9019 67.9751 81.0853 66.5593 83.9226 63.7274V60.9208C82.7168 60.5435 81.4224 60.2602 80.0389 60.0711C78.6553 59.8652 77.2633 59.7625 75.8629 59.7625ZM119.753 37.261C120.356 37.261 120.782 37.3982 121.03 37.673C121.296 37.9305 121.429 38.3765 121.429 39.012V67.5374H123.61C124.213 67.5374 124.639 67.6748 124.887 67.9494C125.153 68.207 125.286 68.653 125.286 69.2879C125.286 69.9233 125.153 70.3781 124.887 70.6526C124.639 70.9102 124.213 71.0389 123.61 71.0389H119.381C118.778 71.0389 118.343 70.9102 118.077 70.6526C117.829 70.3781 117.705 69.9233 117.705 69.2879V67.2282C116.588 68.636 115.293 69.7174 113.821 70.4725C112.35 71.2277 110.744 71.6051 109.007 71.6051C106.808 71.6051 104.839 71.1074 103.102 70.1116C101.363 69.0994 99.9981 67.6578 99.005 65.787C98.0119 63.8988 97.5154 61.6847 97.5154 59.1446C97.5154 56.6043 98.0119 54.3988 99.005 52.528C99.9981 50.6398 101.363 49.198 103.102 48.2028C104.839 47.19 106.808 46.6836 109.007 46.6836C112.341 46.6836 115.151 48.0995 117.439 50.932V40.7622H113.13C112.527 40.7622 112.092 40.6337 111.826 40.3762C111.578 40.1016 111.454 39.6469 111.454 39.012C111.454 38.3765 111.578 37.9305 111.826 37.673C112.092 37.3982 112.527 37.261 113.13 37.261H119.753ZM109.273 50.4943C107.694 50.4943 106.338 50.8633 105.203 51.6009C104.068 52.3221 103.199 53.3349 102.596 54.6393C102.011 55.9437 101.718 57.4453 101.718 59.1446C101.718 60.844 102.011 62.3456 102.596 63.65C103.199 64.9544 104.068 65.9755 105.203 66.7135C106.338 67.4347 107.694 67.795 109.273 67.795C110.851 67.795 112.252 67.4517 113.476 66.7652C114.717 66.0786 115.683 65.0829 116.375 63.7785C117.084 62.4741 117.439 60.9297 117.439 59.1446C117.439 57.3596 117.084 55.8146 116.375 54.5102C115.683 53.2058 114.717 52.2105 113.476 51.5239C112.252 50.8375 110.851 50.4943 109.273 50.4943ZM236.981 39.9128C237.707 39.9128 238.223 40.0412 238.523 40.2988C238.824 40.5563 238.975 40.9853 238.975 41.5862V49.31H249.908C250.511 49.31 250.937 49.4474 251.186 49.722C251.451 49.979 251.585 50.4256 251.585 51.0605C251.585 51.6954 251.451 52.1501 251.186 52.4247C250.937 52.6824 250.511 52.8109 249.908 52.8109H238.975V62.1824C238.975 64.1393 239.322 65.5722 240.013 66.4819C240.722 67.3913 241.946 67.8467 243.684 67.8467C244.873 67.8467 246.123 67.6148 247.434 67.1514C248.747 66.6878 250.015 66.0699 251.239 65.2976C251.487 65.1258 251.762 65.0401 252.064 65.0401C252.667 65.0401 253.181 65.435 253.607 66.2241C253.837 66.6707 253.952 67.0568 253.952 67.383C253.952 67.9324 253.66 68.3784 253.074 68.7217C251.691 69.5625 250.149 70.2577 248.446 70.8071C246.744 71.3392 245.156 71.6051 243.684 71.6051C240.669 71.6051 238.462 70.8498 237.061 69.3395C235.679 67.812 234.986 65.5378 234.986 62.5168V52.8109H229.585C228.984 52.8109 228.549 52.6824 228.283 52.4247C228.034 52.1501 227.91 51.6954 227.91 51.0605C227.91 50.4256 228.034 49.979 228.283 49.722C228.549 49.4474 228.984 49.31 229.585 49.31H234.986V41.5862C234.986 40.9853 235.136 40.5563 235.438 40.2988C235.739 40.0412 236.254 39.9128 236.981 39.9128ZM274.034 46.6836C276.606 46.6836 278.796 47.19 280.605 48.2028C282.432 49.198 283.833 50.5887 284.809 52.3736C285.783 54.141 286.343 56.1837 286.484 58.5008C286.484 59.0843 286.35 59.496 286.086 59.7368C285.836 59.9767 285.41 60.0971 284.809 60.0971H265.55C265.673 62.6542 266.455 64.5941 267.891 65.9155C269.344 67.2199 271.392 67.872 274.034 67.872C275.666 67.872 277.28 67.6748 278.877 67.2799C280.473 66.8679 281.873 66.3275 283.079 65.658C283.382 65.5037 283.655 65.4261 283.904 65.4261C284.524 65.4261 285.029 65.8809 285.421 66.7911C285.58 67.1514 285.659 67.4776 285.659 67.7693C285.659 68.4558 285.27 68.9879 284.49 69.3653C283.124 70.0348 281.509 70.5752 279.649 70.9872C277.786 71.3992 275.915 71.6051 274.034 71.6051C271.358 71.6051 269.07 71.1074 267.173 70.1116C265.275 69.1164 263.83 67.6835 262.837 65.8124C261.844 63.9416 261.348 61.7188 261.348 59.1446C261.348 56.6901 261.887 54.5189 262.969 52.6307C264.052 50.7429 265.55 49.2843 267.465 48.2545C269.381 47.207 271.571 46.6836 274.034 46.6836ZM274.034 50.4167C271.854 50.4167 270.045 50.9577 268.609 52.0386C267.19 53.1031 266.259 54.5876 265.816 56.4929H282.069C281.696 54.5189 280.836 53.0174 279.489 51.987C278.159 50.9401 276.34 50.4167 274.034 50.4167ZM318.99 47.2504C319.593 47.2504 320.018 47.3878 320.267 47.6624C320.533 47.9193 320.665 48.3659 320.665 49.0008C320.665 49.6357 320.533 50.0904 320.267 50.3652C320.018 50.6228 319.593 50.7513 318.99 50.7513H317.26L309.36 58.8095L317.9 67.5374H319.257C319.858 67.5374 320.284 67.6748 320.533 67.9494C320.799 68.207 320.932 68.653 320.932 69.2879C320.932 69.9233 320.799 70.3781 320.533 70.6526C320.284 70.9102 319.858 71.0389 319.257 71.0389H310.105C309.502 71.0389 309.068 70.9102 308.801 70.6526C308.554 70.3781 308.43 69.9233 308.43 69.2879C308.43 68.653 308.554 68.207 308.801 67.9494C309.068 67.6748 309.502 67.5374 310.105 67.5374H312.658L306.274 60.8951L299.918 67.5374H302.019C302.622 67.5374 303.046 67.6748 303.296 67.9494C303.562 68.207 303.694 68.653 303.694 69.2879C303.694 69.9233 303.562 70.3781 303.296 70.6526C303.046 70.9102 302.622 71.0389 302.019 71.0389H293.667C293.064 71.0389 292.629 70.9102 292.363 70.6526C292.115 70.3781 291.99 69.9233 291.99 69.2879C291.99 68.653 292.115 68.207 292.363 67.9494C292.629 67.6748 293.064 67.5374 293.667 67.5374H294.996L303.641 58.7586L295.821 50.7513H293.933C293.328 50.7513 292.895 50.6228 292.629 50.3652C292.382 50.0904 292.256 49.6357 292.256 49.0008C292.256 48.3659 292.382 47.9193 292.629 47.6624C292.895 47.3878 293.328 47.2504 293.933 47.2504H303.083C303.686 47.2504 304.112 47.3878 304.359 47.6624C304.625 47.9193 304.759 48.3659 304.759 49.0008C304.759 49.6357 304.625 50.0904 304.359 50.3652C304.112 50.6228 303.686 50.7513 303.083 50.7513H301.061L306.7 56.673L312.366 50.7513H310.902C310.301 50.7513 309.867 50.6228 309.6 50.3652C309.351 50.0904 309.228 49.6357 309.228 49.0008C309.228 48.3659 309.351 47.9193 309.6 47.6624C309.867 47.3878 310.301 47.2504 310.902 47.2504H318.99ZM334.977 39.9128C335.704 39.9128 336.218 40.0412 336.52 40.2988C336.821 40.5563 336.972 40.9853 336.972 41.5862V49.31H347.905C348.508 49.31 348.934 49.4474 349.181 49.722C349.447 49.979 349.58 50.4256 349.58 51.0605C349.58 51.6954 349.447 52.1501 349.181 52.4247C348.934 52.6824 348.508 52.8109 347.905 52.8109H336.972V62.1824C336.972 64.1393 337.317 65.5722 338.009 66.4819C338.719 67.3913 339.942 67.8467 341.679 67.8467C342.868 67.8467 344.118 67.6148 345.431 67.1514C346.743 66.6878 348.011 66.0699 349.234 65.2976C349.482 65.1258 349.758 65.0401 350.059 65.0401C350.662 65.0401 351.175 65.435 351.602 66.2241C351.832 66.6707 351.947 67.0568 351.947 67.383C351.947 67.9324 351.655 68.3784 351.069 68.7217C349.686 69.5625 348.143 70.2577 346.441 70.8071C344.738 71.3392 343.151 71.6051 341.679 71.6051C338.666 71.6051 336.456 70.8498 335.056 69.3395C333.673 67.812 332.981 65.5378 332.981 62.5168V52.8109H327.582C326.979 52.8109 326.544 52.6824 326.278 52.4247C326.03 52.1501 325.907 51.6954 325.907 51.0605C325.907 50.4256 326.03 49.979 326.278 49.722C326.544 49.4474 326.979 49.31 327.582 49.31H332.981V41.5862C332.981 40.9853 333.132 40.5563 333.433 40.2988C333.735 40.0412 334.249 39.9128 334.977 39.9128Z" fill="#616161"/>
<path d="M176 108.417C203.182 108.417 225.218 84.147 225.218 54.2086C225.218 24.2701 203.182 0 176 0C148.817 0 126.782 24.2701 126.782 54.2086C126.782 84.147 148.817 108.417 176 108.417Z" fill="white"/>
<path d="M162.064 67.5423C166.074 67.5278 169.914 66.0778 172.746 63.5091C175.579 60.9406 177.173 57.4621 177.182 53.8333V23.7845C177.182 20.1559 175.588 16.676 172.753 14.1103C169.918 11.5446 166.073 10.1031 162.064 10.1031C158.054 10.1031 154.209 11.5446 151.374 14.1103C148.539 16.676 146.946 20.1559 146.946 23.7845V53.8333C146.954 57.4621 148.549 60.9406 151.381 63.5091C154.214 66.0778 158.054 67.5278 162.064 67.5423Z" fill="#C2DB84"/>
<path fill-rule="evenodd" clip-rule="evenodd" d="M162.416 77.9849C173.504 77.9849 183.787 68.0095 183.787 53.764H190.642C190.642 69.9064 179.755 83.2071 166.447 85.5801V109L158.385 106.086V85.5873C145.076 83.4523 134.19 69.9136 134.19 53.764H141.044C141.044 68.0022 151.328 77.9849 162.416 77.9849Z" fill="#C2DB84"/>
<path d="M165.704 105.293C164.914 104.92 163.785 104.049 162.317 102.681C160.849 101.314 159.89 100.07 159.438 98.951C159.325 98.8266 159.269 98.4535 159.269 97.8318C159.269 96.9613 159.438 95.9665 159.777 94.8474C160.115 93.7282 160.454 93.1687 160.793 93.1687C161.131 93.5417 162.035 92.6091 163.503 90.3708C165.083 88.0082 165.93 86.5161 166.043 85.8942C166.156 85.3969 166.494 84.9617 167.059 84.5885C167.736 84.0912 168.188 83.7803 168.414 83.656C168.978 82.6612 169.768 81.6043 170.785 80.4851C171.913 79.2415 172.647 78.3712 172.987 77.8737C173.437 77.252 174.284 76.2572 175.526 74.8894C176.768 73.3971 177.897 72.0914 178.914 70.9722C181.623 68.2366 183.598 66.1227 184.841 64.6305C190.712 57.6668 193.76 53.6255 193.987 52.5064C194.098 52.382 194.325 52.1334 194.664 51.7604C195.002 51.3872 195.454 51.0143 196.019 50.6413C197.711 49.3976 199.292 47.9677 200.76 46.3511C200.874 45.4806 201.494 44.1128 202.623 42.2475C203.751 40.3824 204.882 38.828 206.01 37.5845C206.914 36.2167 207.704 34.7244 208.381 33.108C209.171 31.367 209.736 29.8749 210.075 28.6314L210.413 26.9527C210.413 26.4552 210.132 26.0822 209.566 25.8335C209.001 25.4604 208.324 25.1496 207.534 24.9008C206.857 24.6521 206.292 24.4656 205.84 24.3412C203.244 23.4709 200.985 23.0357 199.067 23.0357C194.889 23.0357 190.599 24.7144 186.196 28.0718C184.615 28.4448 183.373 28.8801 182.47 29.3774C180.438 30.1235 179.139 30.4344 178.575 30.3101C178.237 30.1858 177.728 29.6262 177.052 28.6314C176.373 27.6366 175.753 26.8284 175.188 26.2065L173.494 22.2895L178.744 19.1187C185.744 14.0203 191.841 11.4711 197.034 11.4711C198.841 11.4711 200.422 11.7198 201.776 12.2172C202.793 12.2172 203.808 12.3416 204.825 12.5903C205.84 12.839 206.462 13.0255 206.687 13.1498C208.043 13.0255 209.791 14.2068 211.937 16.6938C214.196 19.1808 215.888 21.73 217.019 24.3412C218.372 26.5795 219.051 28.8801 219.051 31.2427C219.051 34.9731 217.244 39.7606 213.631 45.6051C211.147 48.838 207.364 53.5012 202.284 59.5944C197.204 65.6874 194.098 69.2314 192.97 70.2263C191.614 70.9724 188.342 74.5785 183.147 81.0447C177.953 87.5107 175.583 90.7438 176.035 90.7438V91.117C176.035 90.3708 179.534 89.4383 186.534 88.3191C193.647 87.0757 199.123 86.4538 202.961 86.4538C204.203 86.4538 205.093 86.3963 205.543 86.645C206.287 86.6173 206.086 86.645 206.198 86.645C206.424 86.5206 204.749 86.9752 204.749 86.8508C204.863 86.3535 207.252 86.4538 208.719 86.4538C211.317 86.4538 211.48 85.9249 214.004 87.4172C210.918 86.6711 213.868 87.2713 214.658 87.5202C215.562 87.7688 209.953 88.1246 211.947 88.7042C212.286 88.9529 208.302 87.0314 211.901 87.2887C212.014 87.4131 211.247 86.9311 215.313 86.7479C211.527 92.9257 210.869 85.6337 211.434 86.3796C217.556 86.8431 215.033 86.4538 213.817 88.9616C213.537 89.7339 212.415 90.4547 211.106 92.2566C209.563 93.8524 212.368 90.7635 209.75 93.6465C205.303 98.5458 206.806 95.9117 206.852 96.478C206.514 96.7267 206.969 96.7748 205.163 96.8991C203.47 96.8991 202.171 96.8991 201.269 96.8991C200.704 96.7748 199.913 96.7127 198.896 96.7127C196.301 96.7127 192.631 97.5832 187.89 99.324C185.406 100.443 181.341 101.811 175.696 103.428C170.051 105.044 166.72 105.666 165.704 105.293Z" fill="#616161"/>
<path d="M218 103.314L218.57 103.238V98.5299L218.034 98.4315V98.0606H218.935C219.063 98.0606 219.237 98.0505 219.457 98.0303C219.685 98.01 219.864 98 219.993 98C220.666 98 221.146 98.1211 221.429 98.3633C221.718 98.6004 221.862 98.9765 221.862 99.4912C221.862 99.8494 221.771 100.178 221.587 100.475C221.408 100.773 221.161 100.975 220.845 101.081C220.991 101.166 221.127 101.315 221.25 101.527C221.379 101.734 221.534 102.024 221.718 102.398C221.86 102.68 221.967 102.887 222.041 103.019C222.118 103.15 222.192 103.223 222.26 103.238L222.528 103.314V103.685H221.58C221.506 103.685 221.424 103.599 221.333 103.427C221.242 103.251 221.12 102.981 220.969 102.617C220.804 102.219 220.659 101.903 220.536 101.671C220.417 101.434 220.297 101.283 220.178 101.217C219.689 101.217 219.397 101.215 219.306 101.209V103.238L219.986 103.314V103.685H218V103.314ZM220.123 100.808C220.417 100.808 220.647 100.702 220.817 100.49C220.987 100.278 221.072 99.9629 221.072 99.5442C221.072 99.1757 220.984 98.8956 220.811 98.704C220.64 98.5071 220.345 98.4087 219.924 98.4087C219.778 98.4087 219.63 98.4188 219.484 98.439C219.393 98.4491 219.333 98.4542 219.306 98.4542V100.801C219.374 100.806 219.517 100.808 219.732 100.808H220.123Z" fill="#616161"/>
<path d="M220 108C224.418 108 228 104.866 228 101C228 97.134 224.418 94 220 94C215.582 94 212 97.134 212 101C212 104.866 215.582 108 220 108Z" stroke="#616161" stroke-width="3"/>
</g>
</g>
<defs>
<clipPath id="clip0_26_195">
<rect width="352" height="109" fill="white"/>
</clipPath>
</defs>
</svg>
