<svg width="21" height="23" viewBox="0 0 21 23" fill="none" xmlns="http://www.w3.org/2000/svg">
<path fill-rule="evenodd" clip-rule="evenodd" d="M4 0.125C3.13805 0.125 2.3114 0.46741 1.7019 1.0769C1.09241 1.6864 0.75 2.51305 0.75 3.375V19.625C0.75 21.4125 2.2125 22.875 4 22.875H5.625C6.48695 22.875 7.3136 22.5326 7.9231 21.9231C8.53259 21.3136 8.875 20.487 8.875 19.625V3.375C8.875 2.51305 8.53259 1.6864 7.9231 1.0769C7.3136 0.46741 6.48695 0.125 5.625 0.125H4ZM15.375 0.125C14.513 0.125 13.6864 0.46741 13.0769 1.0769C12.4674 1.6864 12.125 2.51305 12.125 3.375V19.625C12.125 21.4125 13.5875 22.875 15.375 22.875H17C17.862 22.875 18.6886 22.5326 19.2981 21.9231C19.9076 21.3136 20.25 20.487 20.25 19.625V3.375C20.25 2.51305 19.9076 1.6864 19.2981 1.0769C18.6886 0.46741 17.862 0.125 17 0.125H15.375Z" fill="#FFA462" fill-opacity="0.5"/>
</svg>
